<?xml version="1.0" encoding="UTF-8" standalone="no"?><!DOCTYPE svg PUBLIC "-//W3C//DTD SVG 1.1//EN" "http://www.w3.org/Graphics/SVG/1.1/DTD/svg11.dtd"><svg width="100%" height="100%" viewBox="0 0 120 305" version="1.1" xmlns="http://www.w3.org/2000/svg" xmlns:xlink="http://www.w3.org/1999/xlink" xml:space="preserve" xmlns:serif="http://www.serif.com/" style="fill-rule:evenodd;clip-rule:evenodd;stroke-linejoin:round;stroke-miterlimit:2;"><g><path d="M93.428,164.984c-4.535,8.164 -5.442,48.982 -4.535,58.053c1.814,19.955 5.442,48.075 -6.349,66.216c-13.607,19.956 -48.075,19.956 -62.588,1.814c-6.35,-8.164 -8.164,-17.234 -9.071,-27.212c-0.907,-12.699 -1.814,-18.141 -0.907,-30.84c-0,-3.629 1.814,-14.514 1.814,-18.142c-0,-29.026 -11.792,-57.145 -11.792,-86.172c0,-29.933 12.699,-55.331 25.398,-81.636c9.071,-17.235 20.863,-43.54 42.632,-46.261c9.978,-1.814 23.584,-0.907 31.748,6.35c7.256,7.256 10.885,18.141 12.699,27.212c5.442,21.77 7.256,42.632 7.256,64.402c0,9.978 -0.907,20.863 -3.628,30.84c-4.535,13.606 -15.42,23.584 -22.677,35.376Z" style="fill:#5ec1a8;fill-rule:nonzero;"/></g></svg>